<svg version="1.0" xmlns="http://www.w3.org/2000/svg"
 width="385.000000pt" height="413.000000pt" viewBox="0 0 385.000000 413.000000"
 preserveAspectRatio="xMidYMid meet">

<g transform="translate(0.000000,413.000000) scale(0.100000,-0.100000)"
fill="#000000" stroke="none">
<path d="M1744 4096 c-44 -19 -77 -68 -110 -161 -27 -78 -28 -86 -32 -339 -4
-232 3 -454 14 -443 7 6 22 148 39 352 22 271 51 429 86 472 17 20 66 16 90
-8 19 -19 20 -29 15 -78 -3 -31 -13 -130 -21 -221 -8 -91 -22 -217 -30 -280
-21 -173 -29 -287 -18 -275 25 26 135 622 149 808 8 103 -5 135 -69 166 -50
24 -70 25 -113 7z"/>
<path d="M2148 3885 c-46 -26 -95 -78 -117 -125 -22 -48 -73 -216 -96 -315 -8
-33 -23 -89 -34 -125 -12 -36 -21 -90 -20 -120 l0 -55 30 75 c16 41 41 107 55
145 15 39 37 94 50 123 13 29 24 57 24 64 0 19 72 172 97 206 26 34 62 42 82
18 15 -18 -1 -124 -30 -205 -11 -31 -26 -76 -34 -101 -29 -97 -76 -244 -137
-427 -35 -106 -61 -193 -58 -193 12 0 117 238 218 490 16 41 41 104 56 140 46
115 86 266 86 325 0 51 -48 95 -103 95 -23 -1 -54 -7 -69 -15z"/>
<path d="M1265 3822 c-44 -27 -53 -41 -71 -112 -35 -136 -16 -452 39 -655 l22
-80 5 343 6 343 26 26 c16 15 33 23 42 20 38 -15 44 -46 55 -304 11 -249 26
-403 41 -403 7 0 13 123 26 512 6 173 5 203 -10 242 -30 78 -114 109 -181 68z"/>
<path d="M2584 3420 c-76 -43 -119 -98 -214 -275 -9 -16 -29 -51 -43 -77 -15
-27 -39 -69 -53 -95 -14 -26 -34 -60 -45 -74 -10 -15 -19 -30 -19 -33 0 -4 -8
-19 -18 -34 -11 -15 -38 -56 -60 -92 -138 -217 -292 -418 -362 -474 -119 -95
-263 -100 -398 -12 -54 35 -72 50 -196 163 -141 129 -242 163 -310 103 -45
-40 -60 -87 -52 -159 11 -91 45 -148 148 -243 134 -123 215 -193 298 -258 18
-14 55 -44 84 -68 50 -42 67 -55 213 -155 74 -50 239 -206 287 -270 41 -54 44
-38 6 25 -54 88 -199 247 -280 307 -138 101 -387 309 -468 390 -180 179 -225
283 -141 326 43 23 60 19 109 -26 182 -167 229 -204 320 -250 60 -31 72 -34
160 -34 86 0 100 3 150 30 62 33 152 101 191 142 28 30 99 136 99 147 0 4 8
19 19 34 25 38 151 250 151 256 0 2 25 45 55 94 30 50 55 92 55 95 0 3 22 41
48 84 26 43 55 92 64 108 22 43 80 143 111 192 59 93 169 141 212 93 20 -23
18 -31 -38 -125 -202 -338 -269 -478 -343 -721 -122 -402 -87 -736 102 -981
37 -48 106 -114 112 -108 4 4 -19 34 -72 95 -29 34 -85 151 -112 235 -28 87
-29 97 -29 280 1 180 3 197 33 315 27 108 78 260 122 365 7 17 76 158 153 315
122 246 141 292 141 333 0 59 -10 67 -84 67 -43 0 -67 -7 -106 -30z"/>
<path d="M177 3392 c-23 -25 -21 -58 3 -82 36 -36 82 -18 96 36 13 52 -62 87
-99 46z"/>
<path d="M3214 3134 c-36 -37 -41 -61 -22 -97 32 -62 102 -76 151 -32 60 57
12 165 -74 165 -12 0 -37 -16 -55 -36z"/>
<path d="M1700 2645 c-15 -19 -25 -104 -16 -140 8 -33 41 -65 66 -65 12 0 32
12 45 26 21 23 25 37 25 90 0 51 -4 68 -20 84 -24 24 -82 27 -100 5z"/>
<path d="M1490 2612 c-47 -15 -73 -98 -50 -166 11 -36 56 -63 85 -52 26 10 55
69 55 114 0 75 -39 120 -90 104z"/>
<path d="M80 1600 c0 -5 18 -10 40 -10 l40 0 0 -110 c0 -103 1 -110 20 -110
19 0 20 7 20 110 l0 110 40 0 c22 0 40 5 40 10 0 6 -40 10 -100 10 -60 0 -100
-4 -100 -10z"/>
<path d="M320 1490 c0 -100 3 -120 15 -120 12 0 15 13 15 55 l0 55 75 0 75 0
0 -55 c0 -42 3 -55 15 -55 13 0 15 20 15 120 0 100 -2 120 -15 120 -12 0 -15
-13 -15 -55 l0 -56 -72 3 -73 3 -3 53 c-2 37 -7 52 -18 52 -11 0 -14 -22 -14
-120z"/>
<path d="M585 1490 l0 -120 88 0 c51 0 87 4 87 10 0 6 -30 10 -70 10 l-70 0 0
45 0 45 60 0 c33 0 60 4 60 10 0 6 -27 10 -60 10 l-60 0 0 45 0 45 70 0 c40 0
70 4 70 10 0 6 -36 10 -87 10 l-88 0 0 -120z"/>
<path d="M160 881 l0 -411 95 0 95 0 0 115 0 115 89 0 c88 0 89 -1 108 -29 10
-16 45 -68 77 -115 l59 -86 98 0 c89 0 98 2 92 18 -3 9 -15 27 -26 39 -11 12
-25 31 -31 41 -28 48 -87 131 -96 137 -19 12 -10 33 19 44 36 16 83 65 110
116 17 32 21 58 21 128 0 78 -3 96 -27 138 -32 60 -92 110 -158 135 -42 16
-87 19 -287 22 l-238 3 0 -410z m448 239 c111 -50 100 -223 -16 -258 -22 -7
-85 -12 -141 -12 l-101 0 0 145 0 145 108 0 c84 0 116 -5 150 -20z"/>
<path d="M1346 1228 c-15 -35 -38 -85 -51 -113 -13 -27 -51 -113 -85 -190 -34
-77 -72 -162 -85 -190 -24 -51 -90 -202 -106 -243 -8 -22 -8 -22 87 -22 81 0
96 2 101 18 3 9 14 36 25 59 10 24 23 54 28 68 l10 25 194 0 195 0 25 -55 c14
-30 28 -66 32 -81 4 -14 12 -28 19 -30 6 -3 53 -3 103 -2 l92 3 -19 40 c-11
22 -50 108 -86 190 -37 83 -77 173 -90 200 -13 28 -49 109 -80 180 -31 72 -64
146 -75 165 l-18 35 -94 3 -95 3 -27 -63z m144 -170 c7 -24 17 -52 24 -63 7
-11 19 -38 26 -60 7 -22 23 -61 36 -87 13 -26 24 -50 24 -53 0 -3 -61 -5 -135
-5 l-135 0 19 43 c61 135 81 180 81 187 0 17 31 80 40 80 5 0 14 -19 20 -42z"/>
<path d="M2040 879 l0 -411 263 4 262 3 75 37 c138 68 216 186 227 343 10 152
-61 294 -185 369 -91 55 -160 66 -418 66 l-224 0 0 -411z m496 233 c104 -47
156 -159 133 -287 -27 -151 -115 -205 -336 -205 l-113 0 0 261 0 261 133 -4
c112 -3 140 -7 183 -26z"/>
<path d="M3012 1003 c3 -286 3 -288 29 -347 28 -63 92 -137 140 -161 40 -21
146 -45 202 -45 78 0 181 28 228 62 59 43 90 81 118 147 24 54 25 65 29 344
l3 287 -95 0 -95 0 -3 -283 -3 -284 -25 -36 c-65 -95 -228 -102 -298 -12 -34
43 -42 114 -42 370 l0 245 -96 0 -95 0 3 -287z"/>
<path d="M160 215 c0 -138 1 -145 20 -145 18 0 20 7 20 60 l0 60 76 0 c56 0
75 3 72 13 -3 8 -30 13 -76 15 l-72 3 0 49 0 49 82 3 c70 3 83 6 86 21 3 15
-7 17 -102 17 l-106 0 0 -145z"/>
<path d="M510 215 c0 -138 1 -145 20 -145 17 0 20 7 20 45 l0 45 45 0 c41 0
47 -3 77 -45 18 -24 41 -44 51 -45 23 0 22 3 -12 51 l-30 40 31 27 c38 35 42
86 9 128 -30 38 -42 42 -133 43 l-78 1 0 -145z m164 95 c31 -11 42 -49 25 -82
-18 -33 -28 -38 -91 -38 l-58 0 0 65 0 65 49 0 c27 0 61 -4 75 -10z"/>
<path d="M960 293 c-18 -38 -43 -90 -56 -118 -43 -90 -46 -105 -24 -105 12 0
23 12 31 35 l13 35 82 0 82 0 11 -30 c10 -30 36 -49 48 -36 4 3 -7 37 -25 74
-17 37 -46 100 -64 139 -42 94 -57 94 -98 6z m79 -41 c13 -31 25 -63 28 -69 4
-10 -11 -13 -54 -13 -33 0 -62 2 -65 5 -3 3 3 22 13 41 9 19 22 48 28 65 5 16
14 29 18 29 4 0 19 -26 32 -58z"/>
<path d="M1290 215 c0 -122 2 -145 15 -145 12 0 15 17 15 94 0 52 4 97 9 101
6 3 22 -16 37 -42 39 -69 76 -123 84 -123 3 0 17 19 29 43 13 23 35 62 49 87
l27 45 3 -102 c2 -95 4 -103 22 -103 19 0 20 8 20 145 0 137 -1 145 -19 145
-12 0 -23 -9 -27 -22 -3 -13 -19 -42 -35 -66 -16 -24 -29 -46 -29 -49 0 -3
-10 -21 -21 -40 l-21 -34 -34 53 c-19 29 -37 60 -41 68 -18 39 -57 90 -69 90
-11 0 -14 -29 -14 -145z"/>
<path d="M1780 215 l0 -145 106 0 c80 0 105 3 102 13 -3 8 -32 13 -86 15 l-82
3 0 49 0 50 70 0 c56 0 70 3 70 15 0 12 -14 15 -70 15 l-70 0 0 45 0 45 80 0
c73 0 80 2 80 20 0 19 -7 20 -100 20 l-100 0 0 -145z"/>
<path d="M2110 350 c0 -5 11 -38 24 -72 12 -35 34 -96 47 -135 19 -60 27 -73
45 -73 20 0 44 34 44 63 0 7 13 46 29 87 31 83 33 82 66 -20 41 -127 40 -125
65 -125 20 0 27 9 43 60 11 33 31 89 44 125 26 75 29 100 9 100 -9 0 -28 -42
-52 -115 -21 -63 -41 -115 -45 -115 -3 0 -23 52 -44 115 -53 162 -61 160 -125
-37 -22 -68 -37 -91 -44 -66 -2 7 -18 59 -37 115 -26 79 -38 103 -51 103 -10
0 -18 -4 -18 -10z"/>
<path d="M2746 348 c-33 -19 -75 -67 -82 -94 -32 -127 98 -224 227 -170 41 17
79 81 79 132 0 41 -31 95 -70 122 -37 24 -120 30 -154 10z m105 -29 c50 -17
79 -55 79 -107 0 -37 -6 -50 -34 -78 -29 -29 -41 -34 -79 -34 -34 0 -53 6 -75
25 -63 53 -46 165 28 191 45 16 41 16 81 3z"/>
<path d="M3120 215 c0 -137 1 -145 19 -145 16 0 20 8 23 42 3 43 3 43 45 46
25 2 45 -2 52 -10 6 -7 22 -28 37 -46 14 -17 32 -32 40 -32 19 0 18 5 -16 51
l-29 41 29 25 c25 20 30 32 30 66 -1 77 -43 107 -154 107 l-76 0 0 -145z m180
85 c26 -26 25 -60 0 -88 -17 -18 -32 -22 -80 -22 l-60 0 0 65 0 65 60 0 c47 0
64 -4 80 -20z"/>
<path d="M3510 215 c0 -138 1 -145 20 -145 17 0 20 7 20 38 0 27 7 45 23 60
23 22 47 29 47 15 0 -18 102 -113 121 -113 18 0 15 7 -23 51 -23 28 -53 64
-65 79 l-22 27 59 64 c43 47 55 65 43 67 -9 3 -50 -30 -99 -79 l-84 -84 0 83
c0 75 -2 82 -20 82 -19 0 -20 -7 -20 -145z"/>
</g>
</svg>
